<svg width="82" height="33" viewBox="0 0 82 33" fill="none" xmlns="http://www.w3.org/2000/svg">
<path d="M3.4005 15H1.27953V4.83328H7.10697V6.59959H3.4005V9.22124H6.84967V10.9806H3.4005V15ZM15.9942 11.0988C15.9942 11.7479 15.9061 12.3227 15.7299 12.8234C15.5584 13.3241 15.3057 13.7483 14.9719 14.096C14.6428 14.439 14.2441 14.6987 13.7758 14.8748C13.3122 15.051 12.7884 15.1391 12.2042 15.1391C11.6572 15.1391 11.1542 15.051 10.6952 14.8748C10.2409 14.6987 9.84452 14.439 9.5061 14.096C9.1723 13.7483 8.91269 13.3241 8.72725 12.8234C8.54645 12.3227 8.45604 11.7479 8.45604 11.0988C8.45604 10.2365 8.60903 9.50635 8.91501 8.90831C9.22098 8.31027 9.65677 7.85594 10.2224 7.54533C10.7879 7.23472 11.4625 7.07941 12.246 7.07941C12.9738 7.07941 13.6182 7.23472 14.1792 7.54533C14.7448 7.85594 15.1875 8.31027 15.5074 8.90831C15.8319 9.50635 15.9942 10.2365 15.9942 11.0988ZM10.6187 11.0988C10.6187 11.6088 10.6744 12.0376 10.7856 12.3853C10.8969 12.733 11.0707 12.9949 11.3072 13.1711C11.5436 13.3473 11.8519 13.4354 12.2321 13.4354C12.6076 13.4354 12.9112 13.3473 13.143 13.1711C13.3795 12.9949 13.551 12.733 13.6576 12.3853C13.7689 12.0376 13.8245 11.6088 13.8245 11.0988C13.8245 10.5842 13.7689 10.1577 13.6576 9.81928C13.551 9.47622 13.3795 9.21892 13.143 9.04739C12.9066 8.87586 12.5983 8.79009 12.2181 8.79009C11.6572 8.79009 11.2492 8.98249 10.9942 9.36727C10.7439 9.75206 10.6187 10.3292 10.6187 11.0988ZM20.9037 15.1391C20.1341 15.1391 19.4781 15 18.9357 14.7218C18.3933 14.439 17.9807 14.0033 17.6979 13.4145C17.4151 12.8257 17.2737 12.0724 17.2737 11.1544C17.2737 10.2041 17.4336 9.42986 17.7535 8.83182C18.078 8.22914 18.5254 7.7864 19.0956 7.50361C19.6705 7.22081 20.3358 7.07941 21.0914 7.07941C21.6292 7.07941 22.0928 7.13273 22.4822 7.23935C22.8763 7.34135 23.2194 7.4642 23.5114 7.60792L22.8856 9.24906C22.5518 9.11461 22.2412 9.00567 21.9537 8.92222C21.6663 8.83413 21.3789 8.79009 21.0914 8.79009C20.7206 8.79009 20.4123 8.87818 20.1666 9.05434C19.9208 9.22588 19.7377 9.48549 19.6172 9.83319C19.4967 10.1809 19.4364 10.6167 19.4364 11.1405C19.4364 11.6551 19.5013 12.0816 19.6311 12.4201C19.7609 12.7585 19.9487 13.0112 20.1944 13.1781C20.4401 13.3403 20.7391 13.4214 21.0914 13.4214C21.5319 13.4214 21.9236 13.3635 22.2667 13.2476C22.6097 13.1271 22.9435 12.9602 23.268 12.7469V14.5619C22.9435 14.7659 22.6028 14.9119 22.2458 15C21.8935 15.0927 21.4461 15.1391 20.9037 15.1391ZM32.2109 7.22545V15H30.5836L30.2985 14.0056H30.1872C30.0203 14.2698 29.8117 14.4854 29.5614 14.6523C29.311 14.8192 29.0352 14.9421 28.7339 15.0209C28.4325 15.0997 28.1196 15.1391 27.7951 15.1391C27.2388 15.1391 26.7543 15.0417 26.3417 14.847C25.9291 14.6477 25.6069 14.3394 25.3751 13.9221C25.1479 13.5049 25.0343 12.9625 25.0343 12.2949V7.22545H27.1553V11.7664C27.1553 12.3227 27.255 12.7423 27.4543 13.0251C27.6537 13.3079 27.9712 13.4493 28.407 13.4493C28.8382 13.4493 29.1766 13.3519 29.4223 13.1572C29.668 12.9578 29.8395 12.6681 29.9369 12.2879C30.0389 11.9032 30.0899 11.4349 30.0899 10.8832V7.22545H32.2109ZM39.8602 12.6913C39.8602 13.2198 39.7351 13.6672 39.4847 14.0334C39.239 14.395 38.8705 14.6708 38.379 14.8609C37.8876 15.0464 37.2757 15.1391 36.5432 15.1391C36.0008 15.1391 35.5349 15.1043 35.1454 15.0348C34.7606 14.9652 34.3712 14.8493 33.9772 14.6871V12.9347C34.399 13.1247 34.851 13.2824 35.3332 13.4075C35.82 13.5281 36.2465 13.5883 36.6127 13.5883C37.0253 13.5883 37.3197 13.5281 37.4959 13.4075C37.6767 13.2824 37.7671 13.1201 37.7671 12.9208C37.7671 12.791 37.73 12.6751 37.6558 12.5731C37.5863 12.4664 37.4333 12.3482 37.1969 12.2184C36.9604 12.084 36.5895 11.9101 36.0842 11.6969C35.5974 11.4929 35.1964 11.2866 34.8812 11.078C34.5706 10.8693 34.3388 10.6236 34.1858 10.3408C34.0374 10.0534 33.9633 9.68947 33.9633 9.24906C33.9633 8.53048 34.2414 7.99038 34.7977 7.62878C35.3587 7.26253 36.1074 7.07941 37.0439 7.07941C37.526 7.07941 37.985 7.12809 38.4208 7.22545C38.8612 7.3228 39.3132 7.47811 39.7768 7.69136L39.137 9.22124C38.7522 9.05434 38.3883 8.91758 38.0452 8.81095C37.7068 8.70433 37.3614 8.65101 37.0091 8.65101C36.6985 8.65101 36.4644 8.69274 36.3067 8.77618C36.1491 8.85963 36.0703 8.98712 36.0703 9.15865C36.0703 9.28383 36.1097 9.39509 36.1885 9.49245C36.272 9.5898 36.4296 9.69875 36.6614 9.81928C36.8978 9.93518 37.2432 10.0859 37.6975 10.2713C38.138 10.4521 38.5204 10.6422 38.845 10.8415C39.1695 11.0362 39.4198 11.2796 39.596 11.5717C39.7722 11.8591 39.8602 12.2323 39.8602 12.6913Z" fill="#63264F"/>
<path d="M7.28082 25.825C7.28082 26.4277 7.13479 26.9516 6.84272 27.3966C6.55065 27.8417 6.12414 28.1848 5.56319 28.4258C5.00687 28.6669 4.33001 28.7874 3.53262 28.7874C3.18029 28.7874 2.83491 28.7643 2.49648 28.7179C2.16269 28.6715 1.84049 28.6043 1.52988 28.5162C1.2239 28.4235 0.931834 28.3099 0.653674 28.1755V26.1727C1.13582 26.386 1.6365 26.5784 2.15573 26.7499C2.67497 26.9215 3.18956 27.0072 3.69952 27.0072C4.05185 27.0072 4.33465 26.9609 4.54791 26.8681C4.7658 26.7754 4.92342 26.6479 5.02078 26.4857C5.11813 26.3234 5.16681 26.138 5.16681 25.9294C5.16681 25.6744 5.08104 25.4565 4.90951 25.2757C4.73798 25.0949 4.50155 24.9257 4.20021 24.768C3.9035 24.6104 3.56739 24.4412 3.19188 24.2604C2.95544 24.1491 2.69815 24.0147 2.41999 23.8571C2.14183 23.6948 1.87758 23.4978 1.62723 23.266C1.37689 23.0342 1.17059 22.7537 1.00833 22.4245C0.850704 22.0908 0.771892 21.6921 0.771892 21.2285C0.771892 20.6211 0.910972 20.1019 1.18913 19.6708C1.46729 19.2396 1.86367 18.9105 2.37826 18.6833C2.89749 18.4515 3.50944 18.3356 4.21411 18.3356C4.74262 18.3356 5.24562 18.3982 5.72313 18.5234C6.20527 18.6439 6.70828 18.8201 7.23214 19.0519L6.53674 20.7278C6.06851 20.5377 5.64895 20.3917 5.27807 20.2897C4.90719 20.183 4.52936 20.1297 4.14457 20.1297C3.87569 20.1297 3.64621 20.1738 3.45613 20.2619C3.26605 20.3453 3.12234 20.4658 3.02498 20.6235C2.92763 20.7765 2.87895 20.9549 2.87895 21.1589C2.87895 21.4 2.94849 21.604 3.08757 21.7709C3.23128 21.9331 3.44454 22.0908 3.72734 22.2437C4.01477 22.3967 4.37174 22.5752 4.79825 22.7792C5.31748 23.0249 5.76022 23.2822 6.12646 23.5511C6.49734 23.8153 6.78245 24.1283 6.9818 24.4899C7.18115 24.8469 7.28082 25.2919 7.28082 25.825ZM12.2321 27.0976C12.4639 27.0976 12.6887 27.0744 12.9066 27.0281C13.1291 26.9817 13.3493 26.9238 13.5672 26.8542V28.4328C13.3401 28.5348 13.0573 28.6182 12.7188 28.6831C12.385 28.7527 12.0188 28.7874 11.6201 28.7874C11.1565 28.7874 10.7393 28.7133 10.3684 28.5649C10.0021 28.4119 9.7124 28.15 9.49914 27.7791C9.29052 27.4036 9.18621 26.882 9.18621 26.2145V22.4663H8.17093V21.5692L9.3392 20.8599L9.95115 19.2188H11.3072V20.8738H13.4838V22.4663H11.3072V26.2145C11.3072 26.5112 11.3906 26.7337 11.5575 26.882C11.7291 27.0258 11.9539 27.0976 12.2321 27.0976ZM22.2806 20.8738V28.6484H20.6533L20.3682 27.6539H20.257C20.0901 27.9182 19.8814 28.1338 19.6311 28.3007C19.3808 28.4676 19.1049 28.5904 18.8036 28.6692C18.5022 28.748 18.1893 28.7874 17.8648 28.7874C17.3085 28.7874 16.824 28.6901 16.4114 28.4954C15.9988 28.296 15.6766 27.9877 15.4448 27.5705C15.2176 27.1533 15.1041 26.6108 15.1041 25.9433V20.8738H17.225V25.4148C17.225 25.9711 17.3247 26.3906 17.524 26.6734C17.7234 26.9562 18.041 27.0976 18.4767 27.0976C18.9079 27.0976 19.2463 27.0003 19.492 26.8056C19.7377 26.6062 19.9093 26.3165 20.0066 25.9363C20.1086 25.5515 20.1596 25.0833 20.1596 24.5316V20.8738H22.2806ZM26.9675 28.7874C26.1006 28.7874 25.3936 28.449 24.8466 27.7722C24.3042 27.0907 24.033 26.0916 24.033 24.775C24.033 23.4445 24.3088 22.4385 24.8605 21.757C25.4122 21.0708 26.1331 20.7278 27.0232 20.7278C27.3941 20.7278 27.7209 20.7788 28.0037 20.8808C28.2865 20.9828 28.5299 21.1195 28.7339 21.291C28.9425 21.4626 29.1186 21.655 29.2624 21.8682H29.3319C29.3041 21.7199 29.2693 21.502 29.2276 21.2146C29.1905 20.9225 29.172 20.6235 29.172 20.3175V17.828H31.2999V28.6484H29.6726L29.2624 27.64H29.172C29.0375 27.8533 28.8683 28.048 28.6643 28.2242C28.465 28.3957 28.2262 28.5325 27.9481 28.6345C27.6699 28.7364 27.3431 28.7874 26.9675 28.7874ZM27.7116 27.0976C28.2911 27.0976 28.6991 26.9261 28.9355 26.583C29.1766 26.2353 29.3041 25.7138 29.318 25.0184V24.7889C29.318 24.0332 29.2021 23.4561 28.9703 23.0574C28.7385 22.654 28.3073 22.4524 27.6769 22.4524C27.2086 22.4524 26.8424 22.654 26.5781 23.0574C26.3139 23.4607 26.1817 24.0425 26.1817 24.8028C26.1817 25.5631 26.3139 26.1357 26.5781 26.5204C26.847 26.9052 27.2248 27.0976 27.7116 27.0976ZM32.4056 20.8738H34.7282L36.1955 25.2479C36.2418 25.3869 36.2813 25.5283 36.3137 25.6721C36.3462 25.8158 36.374 25.9641 36.3971 26.1171C36.4203 26.2701 36.4389 26.43 36.4528 26.5969H36.4945C36.5223 26.3466 36.5594 26.1125 36.6058 25.8946C36.6568 25.6767 36.7194 25.4611 36.7935 25.2479L38.233 20.8738H40.507L37.2177 29.6428C37.0184 30.1806 36.7588 30.6279 36.4389 30.9849C36.119 31.3465 35.7504 31.6177 35.3332 31.7985C34.9206 31.9793 34.4663 32.0697 33.9702 32.0697C33.7291 32.0697 33.5205 32.0558 33.3444 32.028C33.1682 32.0048 33.0175 31.9793 32.8923 31.9515V30.2686C32.9897 30.2918 33.1126 30.3127 33.2609 30.3312C33.4093 30.3498 33.5646 30.359 33.7268 30.359C34.0235 30.359 34.2785 30.2965 34.4918 30.1713C34.705 30.0461 34.8835 29.8769 35.0272 29.6636C35.1709 29.455 35.2845 29.2255 35.368 28.9752L35.4931 28.5927L32.4056 20.8738Z" fill="#63264F"/>
<path d="M50.4396 20.1758V19.5824H50.2248L50.0597 19.72L50.4396 20.1758ZM81 20.1758L81.3201 20.6755C81.542 20.5334 81.6436 20.2619 81.5695 20.0091C81.4955 19.7562 81.2635 19.5824 81 19.5824V20.1758ZM62.011 32.3407V32.9341H62.1848L62.3311 32.8403L62.011 32.3407ZM50.4396 31.7473C50.1119 31.7473 49.8462 32.0129 49.8462 32.3407C49.8462 32.6684 50.1119 32.9341 50.4396 32.9341V32.3407V31.7473ZM42.9388 25.654C42.6871 25.8638 42.6531 26.238 42.8629 26.4898C43.0727 26.7416 43.4468 26.7756 43.6986 26.5658L43.3187 26.1099L42.9388 25.654ZM50.4396 20.1758V20.7692H81V20.1758V19.5824H50.4396V20.1758ZM81 20.1758L80.6799 19.6762L61.6909 31.841L62.011 32.3407L62.3311 32.8403L81.3201 20.6755L81 20.1758ZM62.011 32.3407V31.7473H50.4396V32.3407V32.9341H62.011V32.3407ZM50.4396 20.1758L50.0597 19.72L42.9388 25.654L43.3187 26.1099L43.6986 26.5658L50.8195 20.6317L50.4396 20.1758Z" fill="#63264F"/>
<path d="M50.4396 5.93407H62.011L81 18.0989H50.4396L43.3187 11.2747" stroke="#63264F" stroke-width="1.18681" stroke-linecap="round" stroke-linejoin="round"/>
</svg>
